<svg xmlns="http://www.w3.org/2000/svg" xmlns:xlink="http://www.w3.org/1999/xlink" viewBox="-13 -14 26 26">
  <path style="fill:#5fbcd3" d="M 9.51057,-3.09017 -1.83697e-15,-10 -9.51057,-3.09017 -5.87785,8.09017 5.87785,8.09017 9.51057,-3.09017 z" />
  <path style="fill:#216778" d="M 10.7181,-2.47446 12.6668,-2.92436 8.52877,9.81122 7.21665,8.30181 z" />
  <path style="fill:#216778" d="M 0.958713,-10.9581 1.13302,-12.9505 11.9666,-5.0795 10.1256,-4.29804 z" />
  <path style="fill:#216778" d="M -10.1256,-4.29804 -11.9666,-5.0795 -1.13302,-12.9505 -0.958713,-10.9581 z" />
  <path style="fill:#216778" d="M -7.21665,8.30181 -8.52877,9.81122 -12.6668,-2.92436 -10.7181,-2.47446 z" />
  <path style="fill:#216778" d="M 5.66542,9.42884 6.69549,11.1432 -6.69549,11.1432 -5.66542,9.42884 z" />
  <path style="fill:#216778" d="M 10.7181,-2.47446 12.6668,-2.92436 8.52877,9.81122 7.21665,8.30181 z" />
  <path style="fill:#ffffff" d="M 0,4.5424805 2.0141602,-0.89941406 H -2.0068359 Z M -0.83496094,6 -5.0097656,-4.9350586 h 1.5600586 l 0.9960937,2.8051758 H 2.4755859 L 3.4716797,-4.9350586 H 5.0097656 L 0.84228516,6 Z" />
</svg>
